<?xml version="1.0" encoding="UTF-8" standalone="no"?>
<!-- Created with Inkscape (http://www.inkscape.org/) -->

<svg
   version="1.1"
   id="svg132"
   width="745"
   height="146"
   viewBox="0 0 744.99999 146"
   sodipodi:docname="oi_logoi.svg"
   inkscape:version="1.2.2 (732a01da63, 2022-12-09)"
   xmlns:inkscape="http://www.inkscape.org/namespaces/inkscape"
   xmlns:sodipodi="http://sodipodi.sourceforge.net/DTD/sodipodi-0.dtd"
   xmlns="http://www.w3.org/2000/svg"
   xmlns:svg="http://www.w3.org/2000/svg">
  <defs
     id="defs136" />
  <sodipodi:namedview
     id="namedview134"
     pagecolor="#ffffff"
     bordercolor="#666666"
     borderopacity="1.0"
     inkscape:showpageshadow="2"
     inkscape:pageopacity="0.0"
     inkscape:pagecheckerboard="0"
     inkscape:deskcolor="#d1d1d1"
     showgrid="false"
     inkscape:zoom="1.0255747"
     inkscape:cx="551.39818"
     inkscape:cy="6.8254417"
     inkscape:window-width="1920"
     inkscape:window-height="1017"
     inkscape:window-x="1912"
     inkscape:window-y="-8"
     inkscape:window-maximized="1"
     inkscape:current-layer="g140">
    <inkscape:page
       x="0"
       y="0"
       id="page138"
       width="745"
       height="146" />
  </sodipodi:namedview>
  <g
     id="g140"
     inkscape:groupmode="layer"
     inkscape:label="Page 1"
     transform="matrix(1.3333333,0,0,1.3333333,0,1.5175867e-5)">
    <g
       id="g142"
       transform="translate(-141.56799,-242.88851)">
      <path
         d="m 240.613,255.406 c 0,-1.773 -1.121,-3.273 -2.855,-3.273 -2.512,0 -4.422,3.551 -4.422,5.972 0,1.786 0.863,3.458 2.687,3.458 2.692,0 4.59,-3.54 4.59,-6.157 m -20.218,23.707 c 1.261,4.938 1.96,10.274 1.96,15.848 0,1.527 -0.05,3.047 -0.156,4.535 l 0.094,-0.359 6.156,-21.688 c 0.176,-0.738 0.699,-2.328 0.699,-3.168 0,-0.742 -0.195,-1.457 -1.035,-1.683 -2.226,-0.575 -4.609,2.617 -7.718,6.515 m 11.668,-11.832 c -8.653,-13.187 -23.696,-21.828 -40.856,-21.828 -27.894,0 -49.602,21.375 -49.602,49.27 0,29.597 24.008,49.746 49.172,49.746 24.434,0 49.036,-21.082 49.036,-51.141 0,-0.41 -0.012,-0.812 -0.024,-1.223 -0.164,-6.71 -1.711,-13.054 -4.359,-18.769 -0.34,1.508 -0.821,3.109 -1.078,4.113 l -6.414,22.438 c -0.348,1.211 -0.79,2.523 -0.79,3.734 0,0.738 0.215,1.375 0.688,1.602 2.687,1.414 7.922,-4.207 11.699,-12.543 0.09,-0.196 0.172,-0.387 0.258,-0.575 -0.371,0.895 -0.68,1.797 -1.09,2.7 -0.504,1.109 -0.902,1.867 -1.527,3.027 -1.121,2.043 -2.535,4.137 -3.172,5.051 -2.086,2.801 -6.938,8.211 -10.582,8.211 -1.652,0 -2.328,-0.852 -2.574,-2.156 -4.098,18.39 -16.043,31.691 -30.145,31.691 -17.476,0 -31.648,-20.445 -31.648,-45.668 0,-25.227 14.172,-45.68 31.648,-45.68 13.61,0 25.207,12.395 29.68,29.77 0.39,-0.789 2.496,-4.473 4.32,-6.371 2.422,-2.516 4.59,-4.895 7.36,-5.399"
         style="fill:#7d2128;fill-opacity:1;fill-rule:nonzero;stroke:none"
         id="path144" />
      <path
         d="m 297.18,340.578 v -18.32 c 0,-1.887 -0.285,-4.996 1.847,-5.789 v -0.133 h -8.015 v 0.133 c 2.144,0.793 1.89,3.859 1.89,5.789 v 15.836 c 0,1.886 0.254,5 -1.89,5.758 v 0.121 h 17.261 l 2.188,-5.582 h -0.133 c -2.094,1.765 -4.578,2.73 -7.43,2.566 z m 16.914,2.977 c 0,3.785 -0.379,5.879 -4.27,8.363 v 0.113 c 5.141,-0.566 7.832,-2.597 7.832,-6.301 v -19.847 c 0,-1.613 -0.207,-4.168 1.539,-4.836 v -0.102 h -6.672 v 0.102 c 1.786,0.668 1.571,3.223 1.571,4.836 z m 23.422,0.418 h 5.14 v -0.102 c -1.785,-0.668 -1.582,-3.223 -1.582,-4.793 v -13.195 c 0,-1.613 -0.203,-4.168 1.582,-4.836 l -0.043,-0.102 h -6.64 v 0.102 c 1.746,0.668 1.543,3.223 1.543,4.805 v 10.527 c 0,1.262 0.027,2.137 -0.743,3.184 -1.16,1.652 -3.148,2.453 -5.109,2.453 -3.613,0 -5.574,-2.168 -5.574,-6.828 v -9.336 c 0,-1.582 -0.203,-4.137 1.539,-4.805 v -0.102 h -6.637 v 0.102 c 1.785,0.668 1.539,3.223 1.539,4.805 v 9.336 c 0,2.527 -0.074,4.867 1.785,6.898 1.571,1.715 4.024,2.453 6.332,2.453 2.454,0 5.325,-0.84 6.868,-2.875 z m 9.336,-4.934 c 0,1.609 0.214,4.164 -1.539,4.832 v 0.102 h 5.777 c 2.617,0 5.39,0.105 7.832,-1.086 2.351,-1.117 4.207,-3.43 4.207,-6.125 0,-3.43 -2.555,-5.524 -5.707,-6.192 1.992,-0.871 3.5,-2.207 3.5,-4.547 0,-3.117 -2.699,-5.078 -7.317,-5.078 h -8.292 v 0.114 c 1.785,0.656 1.539,3.211 1.539,4.793 z m 3.574,2.133 v -8.641 l 2.453,-0.144 c 3.078,-0.172 6.359,1.293 6.359,4.691 0,3.324 -2.902,4.66 -5.777,4.371 z m 0,-10.949 v -6.856 l 2.34,-0.246 c 2.101,-0.215 4.351,1.047 4.351,3.457 0,2.875 -3.265,3.645 -5.543,3.645 z m 20.472,10.918 v -15.258 c 0,-1.57 -0.246,-4.168 1.54,-4.836 v -0.102 h -6.68 v 0.102 c 1.785,0.668 1.57,3.223 1.57,4.836 v 13.195 c 0,1.57 0.215,4.168 -1.57,4.793 v 0.102 h 14.379 l 1.816,-4.649 h -0.105 c -1.743,1.469 -3.817,2.27 -6.2,2.137 z m 14.594,2.414 c 0,3.785 -0.379,5.879 -4.269,8.363 v 0.113 c 5.14,-0.566 7.832,-2.597 7.832,-6.301 v -19.847 c 0,-1.613 -0.207,-4.168 1.547,-4.836 v -0.102 h -6.68 v 0.102 c 1.785,0.668 1.57,3.223 1.57,4.836 z m 22.61,-8.223 1.886,4.926 c 0.946,2.453 1.235,2.844 -0.492,3.613 v 0.102 h 7.184 v -0.102 c -2,-1.016 -2.625,-2.976 -3.438,-4.976 l -7.277,-17.95 h -5.531 v 0.114 c 1.683,0.523 1.015,1.988 0.523,3.254 l -5.84,14.582 c -0.808,2 -1.363,3.96 -3.394,4.976 v 0.106 h 6.445 v -0.106 c -1.684,-0.637 -1.438,-1.652 -0.711,-3.613 l 1.828,-4.926 z m -1.016,-2.586 h -6.898 l 3.468,-8.824 z m 15.187,-6.863 12.008,15.226 c 1.582,1.993 2.629,3.141 5.11,3.985 v -19.633 c 0,-1.961 0,-3.356 1.82,-4.414 v -0.102 h -6.16 v 0.102 c 1.859,1.058 1.828,2.453 1.828,4.414 v 13.269 l -12.82,-16.175 -0.493,-0.696 c -0.246,-0.277 -0.378,-0.464 -0.523,-0.882 v -0.032 h -5.109 v 0.102 c 1.828,1.058 1.828,2.453 1.828,4.414 v 13.969 c 0,1.957 0,3.355 -1.86,4.441 v 0.106 h 6.2 v -0.106 c -1.86,-1.086 -1.829,-2.484 -1.829,-4.441 z m 36.227,9.449 1.891,4.926 c 0.945,2.453 1.222,2.844 -0.493,3.613 v 0.102 h 7.172 v -0.102 c -1.988,-1.016 -2.617,-2.976 -3.425,-4.976 l -7.278,-17.95 h -5.531 v 0.114 c 1.684,0.523 1.016,1.988 0.523,3.254 l -5.839,14.582 c -0.813,2 -1.364,3.96 -3.399,4.976 v 0.106 h 6.438 v -0.106 c -1.676,-0.637 -1.43,-1.652 -0.7,-3.613 l 1.817,-4.926 z m -1.016,-2.586 h -6.894 l 3.469,-8.824 z"
         style="fill:#636161;fill-opacity:1;fill-rule:nonzero;stroke:none"
         id="path146" />
      <path
         d="m 292.613,303.098 c 0,1.886 0.246,5 -1.847,5.746 v 0.133 h 7.976 v -0.133 c -2.105,-0.789 -1.847,-3.86 -1.847,-5.746 v -15.836 c 0,-1.887 -0.258,-4.996 1.847,-5.797 v -0.125 h -7.976 v 0.125 c 2.144,0.801 1.847,3.867 1.847,5.797 z m 13.043,-12.211 12.008,15.218 c 1.57,1.993 2.629,3.149 5.102,3.993 v -19.633 c 0,-1.961 0,-3.367 1.828,-4.414 v -0.102 h -6.16 v 0.102 c 1.859,1.047 1.816,2.453 1.816,4.414 v 13.258 l -12.805,-16.164 -0.496,-0.707 c -0.246,-0.278 -0.386,-0.454 -0.519,-0.872 v -0.031 h -5.114 v 0.102 c 1.829,1.047 1.829,2.453 1.829,4.414 v 13.957 c 0,1.961 0,3.367 -1.86,4.445 v 0.113 h 6.188 v -0.113 c -1.856,-1.078 -1.817,-2.484 -1.817,-4.445 z m 34.649,-4.735 c -1.672,-0.523 -3.457,-0.769 -5.215,-0.769 -4.266,0 -8.781,1.683 -8.781,6.097 0,7.411 12.046,6.434 12.046,11.895 0,2.453 -3.015,3.645 -5.007,3.645 -2.743,0 -5.606,-1.122 -7.668,-2.907 l 1.015,4.371 c 1.993,0.743 4.129,1.047 6.262,1.047 5.461,0 9.379,-3.488 9.379,-7.246 0,-6.472 -12.035,-6.402 -12.035,-11.195 0,-2.41 2.512,-3.192 4.515,-3.192 1.957,0 4.125,0.813 5.489,2.207 z m 12.847,2.313 h 3.153 c 1.148,0 2.547,0.172 3.008,1.402 h 0.101 l 1.121,-4.164 h -0.105 c -0.45,0.215 -1.016,0.246 -1.61,0.246 h -13.925 c -0.454,-0.07 -0.915,-0.07 -1.336,-0.246 h -0.102 l -1.223,4.164 h 0.102 c 1.09,-1.015 2.668,-1.402 4.168,-1.402 h 3.078 v 15.609 c 0,1.578 0.215,4.125 -1.539,4.793 v 0.102 h 6.93 v -0.102 c -1.86,-1.078 -1.821,-2.445 -1.821,-4.445 z m 9.309,15.609 c 0,1.578 0.219,4.164 -1.539,4.793 v 0.11 h 6.652 v -0.11 c -1.754,-0.66 -1.539,-3.215 -1.539,-4.793 v -13.187 c 0,-1.582 -0.215,-4.168 1.539,-4.836 v -0.102 h -6.652 v 0.102 c 1.785,0.668 1.539,3.222 1.539,4.836 z m 15.887,-15.609 h 3.152 c 1.148,0 2.555,0.172 3.008,1.402 h 0.101 l 1.129,-4.164 h -0.113 c -0.449,0.215 -1.016,0.246 -1.602,0.246 h -13.925 c -0.461,-0.07 -0.914,-0.07 -1.332,-0.246 h -0.106 l -1.23,4.164 h 0.113 c 1.078,-1.015 2.656,-1.402 4.156,-1.402 h 3.09 v 15.609 c 0,1.578 0.203,4.125 -1.539,4.793 v 0.102 h 6.914 v -0.102 c -1.844,-1.078 -1.816,-2.445 -1.816,-4.445 z m 23.843,20.512 h 5.141 v -0.11 c -1.785,-0.66 -1.582,-3.215 -1.582,-4.793 v -13.187 c 0,-1.614 -0.203,-4.168 1.582,-4.836 l -0.031,-0.102 h -6.649 v 0.102 c 1.743,0.668 1.539,3.222 1.539,4.793 v 10.539 c 0,1.262 0.028,2.137 -0.742,3.183 -1.148,1.641 -3.148,2.454 -5.109,2.454 -3.602,0 -5.563,-2.176 -5.563,-6.829 v -9.347 c 0,-1.571 -0.214,-4.125 1.539,-4.793 v -0.102 h -6.648 v 0.102 c 1.785,0.668 1.539,3.222 1.539,4.793 v 9.347 c 0,2.516 -0.074,4.868 1.785,6.899 1.571,1.715 4.024,2.441 6.332,2.441 2.453,0 5.328,-0.828 6.867,-2.863 z m 16.059,-20.512 h 3.152 c 1.149,0 2.555,0.172 3.008,1.402 h 0.102 l 1.117,-4.164 h -0.102 c -0.453,0.215 -1.015,0.246 -1.609,0.246 h -13.93 c -0.449,-0.07 -0.902,-0.07 -1.324,-0.246 h -0.101 l -1.231,4.164 h 0.102 c 1.089,-1.015 2.668,-1.402 4.168,-1.402 h 3.078 v 15.609 c 0,1.578 0.215,4.125 -1.539,4.793 v 0.102 h 6.925 v -0.102 c -1.855,-1.078 -1.816,-2.445 -1.816,-4.445 z m 13.086,9.277 h 2.598 c 1.078,0 2.554,-0.043 3.109,0.973 h 0.102 v -3.703 h -0.102 c -0.422,0.215 -0.977,0.215 -1.539,0.215 h -4.168 v -6.516 c 1.117,-0.207 2.352,-0.25 3.57,-0.25 1.614,0 3.051,0.144 4.137,1.406 h 0.102 v -4.094 h -0.102 c -0.461,0.247 -1.055,0.176 -1.652,0.176 h -11.196 v 0.102 c 1.785,0.668 1.578,3.222 1.578,4.836 v 13.187 c 0,1.578 0.207,4.164 -1.578,4.793 v 0.102 h 14.594 l 1.578,-4.578 h -0.113 c -1.742,1.539 -4.156,2.269 -6.473,2.062 l -4.445,-0.422 z m 35.324,-12.39 c -7.359,-0.071 -13.125,5.39 -13.125,12.039 0,7.175 5.84,12.14 12.778,12.14 6.957,0 12.867,-5.172 12.867,-12.312 0,-6.305 -5.172,-11.793 -12.52,-11.867 m -0.246,2.515 c 5.531,0 8.785,4.938 8.785,10.047 0,5.215 -3.398,9.106 -8.722,9.106 -5.493,0 -8.961,-5.04 -8.961,-9.946 0,-5.285 3.468,-9.207 8.898,-9.207 m 19.981,9.875 h 2.585 c 1.09,0 2.559,-0.074 3.122,0.973 h 0.101 v -3.703 h -0.101 c -0.422,0.215 -0.985,0.215 -1.508,0.215 h -4.199 v -6.516 c 1.121,-0.207 2.339,-0.25 3.574,-0.25 1.601,0 3.035,0.144 4.125,1.379 h 0.101 v -4.067 h -0.101 c -0.453,0.247 -1.047,0.176 -1.645,0.176 h -11.195 v 0.102 c 1.785,0.668 1.57,3.222 1.57,4.836 v 13.187 c 0,1.578 0.215,4.164 -1.57,4.793 v 0.102 h 6.609 v -0.102 c -1.746,-0.668 -1.468,-3.215 -1.468,-4.793 z m 34.843,-17.121 c -8.816,-0.082 -15.742,6.477 -15.742,14.449 0,8.614 7.008,14.575 15.332,14.575 8.352,0 15.445,-6.207 15.445,-14.778 0,-7.562 -6.21,-14.152 -15.035,-14.246 m -0.289,3.027 c 6.633,0 10.543,5.922 10.543,12.051 0,6.258 -4.074,10.93 -10.461,10.93 -6.597,0 -10.754,-6.055 -10.754,-11.938 0,-6.339 4.157,-11.043 10.672,-11.043 m 21.864,7.239 12.003,15.218 c 1.582,1.993 2.629,3.149 5.114,3.993 v -19.633 c 0,-1.961 0,-3.367 1.824,-4.414 v -0.102 h -6.168 v 0.102 c 1.859,1.047 1.828,2.453 1.828,4.414 v 13.258 l -12.816,-16.164 -0.493,-0.707 c -0.238,-0.278 -0.382,-0.454 -0.515,-0.872 v -0.031 h -5.11 v 0.102 c 1.817,1.047 1.817,2.453 1.817,4.414 v 13.957 c 0,1.961 0,3.367 -1.848,4.445 v 0.113 h 6.188 v -0.113 c -1.856,-1.078 -1.824,-2.484 -1.824,-4.445 z m 39.027,-4.629 c -2.063,-0.485 -4.238,-0.875 -6.371,-0.875 -7.176,0 -12.278,4.793 -12.278,12.039 0,7.492 5.102,12.109 13.364,12.109 1.816,0 3.644,-0.277 5.285,-1.047 l 1.785,-4.05 h -0.102 c -2.207,1.25 -4.835,2.195 -7.46,2.195 -5.387,0 -8.887,-4.578 -8.887,-9.731 0,-5.07 3.355,-8.609 8.187,-8.609 2.309,0 4.547,0.77 6.477,2 z m 15.578,-0.906 c -7.359,-0.071 -13.125,5.39 -13.125,12.039 0,7.175 5.84,12.14 12.777,12.14 6.969,0 12.871,-5.172 12.871,-12.312 0,-6.305 -5.175,-11.793 -12.523,-11.867 m -0.246,2.515 c 5.531,0 8.785,4.938 8.785,10.047 0,5.215 -3.398,9.106 -8.711,9.106 -5.504,0 -8.973,-5.04 -8.973,-9.946 0,-5.285 3.469,-9.207 8.899,-9.207 m 20.258,18.278 v -15.258 c 0,-1.582 -0.246,-4.168 1.543,-4.836 v -0.102 h -6.684 v 0.102 c 1.785,0.668 1.582,3.222 1.582,4.836 v 13.187 c 0,1.578 0.203,4.164 -1.582,4.793 v 0.11 h 14.391 l 1.816,-4.657 h -0.105 c -1.754,1.465 -3.817,2.278 -6.2,2.133 z m 25.484,-20.793 c -7.348,-0.071 -13.125,5.39 -13.125,12.039 0,7.175 5.848,12.14 12.777,12.14 6.969,0 12.879,-5.172 12.879,-12.312 0,-6.305 -5.172,-11.793 -12.531,-11.867 m -0.246,2.515 c 5.531,0 8.793,4.938 8.793,10.047 0,5.215 -3.395,9.106 -8.723,9.106 -5.488,0 -8.957,-5.04 -8.957,-9.946 0,-5.285 3.469,-9.207 8.887,-9.207 m 34.309,-1.887 c -1.829,-0.378 -3.645,-0.597 -5.5,-0.597 -8.481,0 -14.454,4.691 -14.454,12.215 0,7.039 5.278,11.933 14.247,11.933 2.832,0 5.562,-0.523 8.355,-1.047 -0.207,-0.492 -0.164,-1.046 -0.164,-1.57 v -8.055 c 0,-0.523 0,-1.089 0.164,-1.507 v -0.106 h -5.348 v 0.106 c 1.578,0.636 1.61,2.347 1.61,3.961 v 5.039 c -1.571,0.461 -3.254,0.668 -4.864,0.668 -5.531,0 -10.015,-4.27 -10.015,-9.907 0,-5.633 4.164,-9.215 9.625,-9.215 2.137,0 4.805,0.493 6.23,2.106 h 0.114 z m 14.695,12.911 8.609,-12.942 h -6.125 v 0.102 c 1.961,0.945 1.149,2.629 0.555,3.5 l -4.344,6.508 -5.59,-9.137 c -0.453,-0.727 -1.5,-0.973 -2.629,-0.973 h -3.179 c 1.679,0.903 2.379,2.063 3.324,3.602 l 5.809,9.34 v 5.183 c 0,1.653 0.246,3.918 -1.469,4.793 v 0.113 h 6.824 v -0.113 c -1.785,-1.293 -1.785,-2.34 -1.785,-4.445 z"
         style="fill:#636161;fill-opacity:1;fill-rule:nonzero;stroke:none"
         id="path148" />
      <path
         d="m 305.926,245.625 c -8.828,-0.082 -15.754,6.465 -15.754,14.449 0,8.614 7.008,14.567 15.332,14.567 8.363,0 15.457,-6.211 15.457,-14.782 0,-7.562 -6.211,-14.152 -15.035,-14.234 m -0.297,3.02 c 6.637,0 10.547,5.929 10.547,12.058 0,6.258 -4.074,10.93 -10.465,10.93 -6.59,0 -10.746,-6.055 -10.746,-11.938 0,-6.34 4.156,-11.05 10.664,-11.05 m 21.867,7.234 12.008,15.23 c 1.57,1.993 2.629,3.149 5.113,3.981 v -19.633 c 0,-1.961 0,-3.355 1.817,-4.402 v -0.114 h -6.161 v 0.114 c 1.86,1.047 1.829,2.441 1.829,4.402 v 13.27 l -12.821,-16.172 -0.492,-0.7 c -0.246,-0.277 -0.379,-0.453 -0.523,-0.871 v -0.043 h -5.098 v 0.114 c 1.816,1.047 1.816,2.441 1.816,4.402 v 13.969 c 0,1.961 0,3.355 -1.859,4.445 v 0.102 h 6.188 v -0.102 c -1.856,-1.09 -1.817,-2.484 -1.817,-4.445 z m 22.578,13.156 c 0,1.582 0.215,4.168 -1.578,4.836 v 0.102 h 6.723 v -0.102 c -1.789,-0.668 -1.582,-3.223 -1.582,-4.836 v -13.187 c 0,-1.582 -0.207,-4.168 1.582,-4.793 v -0.114 h -6.723 v 0.114 c 1.793,0.656 1.578,3.211 1.578,4.793 z m 4.024,-7.031 7.769,10.469 c 0.625,0.843 2.238,1.5 3.953,1.5 h 3.293 v -0.102 c -1.785,-0.875 -3.121,-1.859 -4.199,-3.297 l -7.07,-9.265 8.047,-10.325 v -0.043 h -6.301 v 0.114 c 2.348,1.047 0.316,3.254 -0.914,4.863 z m 27.996,-11.656 c -7.348,-0.063 -13.114,5.386 -13.114,12.039 0,7.183 5.84,12.148 12.766,12.148 6.969,0 12.879,-5.18 12.879,-12.312 0,-6.313 -5.172,-11.805 -12.531,-11.875 m -0.246,2.523 c 5.531,0 8.797,4.938 8.797,10.047 0,5.215 -3.399,9.105 -8.723,9.105 -5.492,0 -8.961,-5.05 -8.961,-9.945 0,-5.285 3.469,-9.207 8.887,-9.207 m 20.269,18.27 v -15.262 c 0,-1.57 -0.246,-4.168 1.539,-4.824 v -0.114 h -6.679 v 0.114 c 1.785,0.656 1.57,3.211 1.57,4.824 v 13.199 c 0,1.57 0.215,4.164 -1.57,4.793 v 0.102 h 14.378 l 1.817,-4.649 h -0.106 c -1.742,1.465 -3.816,2.266 -6.195,2.133 z m 25.485,-20.793 c -7.36,-0.063 -13.129,5.386 -13.129,12.039 0,7.183 5.84,12.148 12.777,12.148 6.961,0 12.871,-5.18 12.871,-12.312 0,-6.313 -5.172,-11.805 -12.519,-11.875 m -0.247,2.523 c 5.532,0 8.786,4.938 8.786,10.047 0,5.215 -3.399,9.105 -8.715,9.105 -5.5,0 -8.969,-5.05 -8.969,-9.945 0,-5.285 3.469,-9.207 8.898,-9.207 m 28.59,-1.715 c -1.672,-0.523 -3.457,-0.769 -5.211,-0.769 -4.269,0 -8.785,1.676 -8.785,6.086 0,7.422 12.035,6.445 12.035,11.906 0,2.441 -3.004,3.644 -5.007,3.644 -2.731,0 -5.594,-1.128 -7.657,-2.906 l 1.016,4.371 c 1.992,0.731 4.129,1.047 6.262,1.047 5.461,0 9.379,-3.5 9.379,-7.246 0,-6.473 -12.036,-6.402 -12.036,-11.195 0,-2.422 2.512,-3.192 4.516,-3.192 1.957,0 4.125,0.813 5.488,2.207 z m -5.488,-2.554 5.633,-5.356 c -2.074,0 -3.922,1.016 -5.633,2.102 -1.715,-1.16 -3.676,-2.063 -5.781,-2.102 z m 10.918,20.433 c 0,1.582 0.207,4.168 -1.582,4.836 v 0.102 h 6.723 v -0.102 c -1.786,-0.668 -1.578,-3.223 -1.578,-4.836 v -13.187 c 0,-1.582 -0.208,-4.168 1.578,-4.793 v -0.114 h -6.723 v 0.114 c 1.789,0.656 1.582,3.211 1.582,4.793 z m 4.023,-7.031 7.77,10.469 c 0.625,0.843 2.238,1.5 3.949,1.5 h 3.297 v -0.102 c -1.785,-0.875 -3.121,-1.859 -4.199,-3.297 l -7.07,-9.265 8.046,-10.325 v -0.043 h -6.3 v 0.114 c 2.347,1.047 0.316,3.254 -0.914,4.863 z m 16.903,7.074 c 0,1.57 0.215,4.164 -1.539,4.793 v 0.102 h 6.648 v -0.102 c -1.754,-0.668 -1.539,-3.223 -1.539,-4.793 v -13.199 c 0,-1.57 -0.215,-4.168 1.539,-4.824 v -0.114 h -6.648 v 0.114 c 1.785,0.656 1.539,3.211 1.539,4.824 z m 19.469,-0.988 c 0,1.898 0.257,5 -1.848,5.758 v 0.125 h 7.976 v -0.125 c -2.093,-0.801 -1.847,-3.86 -1.847,-5.758 v -15.824 c 0,-1.899 -0.246,-5.008 1.847,-5.797 v -0.125 h -7.976 v 0.125 c 2.144,0.789 1.848,3.859 1.848,5.797 z m 13.043,-12.211 12.007,15.23 c 1.582,1.993 2.629,3.149 5.114,3.981 v -19.633 c 0,-1.961 0,-3.355 1.816,-4.402 v -0.114 h -6.16 v 0.114 c 1.859,1.047 1.828,2.441 1.828,4.402 v 13.27 l -12.82,-16.172 -0.493,-0.7 c -0.246,-0.277 -0.378,-0.453 -0.523,-0.871 v -0.043 h -5.098 v 0.114 c 1.817,1.047 1.817,2.441 1.817,4.402 v 13.969 c 0,1.961 0,3.355 -1.86,4.445 v 0.102 h 6.188 v -0.102 c -1.848,-1.09 -1.816,-2.484 -1.816,-4.445 z m 34.66,-4.723 c -1.684,-0.523 -3.469,-0.769 -5.227,-0.769 -4.269,0 -8.773,1.676 -8.773,6.086 0,7.422 12.039,6.445 12.039,11.906 0,2.441 -3.02,3.644 -5.008,3.644 -2.731,0 -5.606,-1.128 -7.668,-2.906 l 1.016,4.371 c 1.992,0.731 4.125,1.047 6.261,1.047 5.469,0 9.379,-3.5 9.379,-7.246 0,-6.473 -12.039,-6.402 -12.039,-11.195 0,-2.422 2.527,-3.192 4.516,-3.192 1.961,0 4.136,0.813 5.504,2.207 z m -5.504,-2.554 5.636,-5.356 c -2.062,0 -3.921,1.016 -5.636,2.102 -1.711,-1.16 -3.672,-2.063 -5.766,-2.102 z m 17.644,4.867 h 3.149 c 1.152,0 2.554,0.172 3.008,1.394 h 0.101 l 1.121,-4.156 h -0.105 c -0.449,0.203 -1.016,0.246 -1.61,0.246 h -13.925 c -0.454,-0.07 -0.903,-0.07 -1.325,-0.246 h -0.113 l -1.223,4.156 h 0.106 c 1.086,-1.015 2.656,-1.394 4.164,-1.394 h 3.078 v 15.609 c 0,1.57 0.219,4.125 -1.539,4.793 v 0.102 h 6.93 v -0.102 c -1.86,-1.09 -1.817,-2.453 -1.817,-4.445 z m 9.309,15.609 c 0,1.57 0.215,4.164 -1.539,4.793 v 0.102 h 6.648 v -0.102 c -1.754,-0.668 -1.539,-3.223 -1.539,-4.793 v -13.199 c 0,-1.57 -0.215,-4.168 1.539,-4.824 v -0.114 h -6.648 v 0.114 c 1.785,0.656 1.539,3.211 1.539,4.824 z m 15.887,-15.609 h 3.148 c 1.152,0 2.555,0.172 3.008,1.394 h 0.101 l 1.129,-4.156 h -0.101 c -0.461,0.203 -1.028,0.246 -1.61,0.246 h -13.929 c -0.461,-0.07 -0.91,-0.07 -1.332,-0.246 h -0.102 l -1.234,4.156 H 576 c 1.078,-1.015 2.66,-1.394 4.156,-1.394 h 3.09 v 15.609 c 0,1.57 0.207,4.125 -1.551,4.793 v 0.102 h 6.938 v -0.102 c -1.856,-1.09 -1.824,-2.453 -1.824,-4.445 z m 23.839,20.504 h 5.141 v -0.102 c -1.785,-0.668 -1.578,-3.223 -1.578,-4.793 v -13.199 c 0,-1.613 -0.207,-4.168 1.578,-4.824 l -0.031,-0.114 h -6.649 v 0.114 c 1.743,0.656 1.539,3.211 1.539,4.793 v 10.531 c 0,1.262 0.032,2.133 -0.738,3.191 -1.152,1.641 -3.152,2.442 -5.113,2.442 -3.602,0 -5.563,-2.164 -5.563,-6.824 v -9.34 c 0,-1.582 -0.214,-4.137 1.539,-4.793 v -0.114 h -6.648 v 0.114 c 1.785,0.656 1.539,3.211 1.539,4.793 v 9.34 c 0,2.523 -0.07,4.863 1.785,6.894 1.571,1.715 4.024,2.453 6.332,2.453 2.453,0 5.328,-0.84 6.867,-2.871 z m 16.063,-20.504 h 3.148 c 1.149,0 2.555,0.172 3.008,1.394 h 0.102 l 1.121,-4.156 h -0.106 c -0.449,0.203 -1.015,0.246 -1.609,0.246 h -13.926 c -0.453,-0.07 -0.906,-0.07 -1.324,-0.246 h -0.105 l -1.231,4.156 h 0.113 c 1.078,-1.015 2.657,-1.394 4.157,-1.394 h 3.078 v 15.609 c 0,1.57 0.215,4.125 -1.539,4.793 v 0.102 h 6.929 v -0.102 c -1.859,-1.09 -1.816,-2.453 -1.816,-4.445 z"
         style="fill:#636161;fill-opacity:1;fill-rule:nonzero;stroke:none"
         id="path150" />
    </g>
  </g>
</svg>
